<?xml version="1.0" standalone="no"?>
 <!DOCTYPE svg PUBLIC "-//W3C//DTD SVG 1.1//EN" 
 "http://www.w3.org/Graphics/SVG/1.1/DTD/svg11.dtd"> 
<svg
  xmlns:svg="http://www.w3.org/2000/svg"
  xmlns="http://www.w3.org/2000/svg"
  xmlns:xlink="http://www.w3.org/1999/xlink"
  version="1.1"
  width="29.700220cm" height="21.000720cm" viewBox="0 0 297002200 210007200">
<title>SVG Picture created as Euroclack_badpsu _panel-brd.svg date 2023/01/12 11:00:56 </title>
  <desc>Picture generated by PCBNEW </desc>
<g style="fill:#000000; fill-opacity:1.000000;stroke:#000000; stroke-opacity:1.000000;
stroke-linecap:round; stroke-linejoin:round;"
 transform="translate(0 0) scale(1 1)">
</g>
<g style="fill:#000000; fill-opacity:0.0; 
stroke:#000000; stroke-width:0.000000; stroke-opacity:1; 
stroke-linecap:round; stroke-linejoin:round;">
</g>
<g style="fill:#000000; fill-opacity:0.0; 
stroke:#000000; stroke-width:50000.000000; stroke-opacity:1; 
stroke-linecap:round; stroke-linejoin:round;">
<path d="M174552200 31350000
L172552200 31350000
" />
<path d="M162002200 131500000
L162002200 124250000
" />
<path d="M172552200.000000 150650000.000000 A1600000.000000 1600000.000000 0.0 0 0 172552200.000000 153850000.000000" />
<path d="M151002200 123250000
L151002200 26750000
" />
<path d="M162002200.000000 124250000.000000 A1000000.000000 1000000.000000 0.0 1 0 161002200.000000 123250000.000000" />
<path d="M172552200 150650000
L174552200 150650000
" />
<path d="M174552200.000000 31350000.000000 A1600000.000000 1600000.000000 0.0 0 0 174552200.000000 28150000.000000" />
<path d="M172552200.000000 28150000.000000 A1600000.000000 1600000.000000 0.0 0 0 172552200.000000 31350000.000000" />
<path d="M151002200 26750000
L181002200 26750000
" />
<path d="M181002200 155250000
L151002200 155250000
" />
<path d="M151002200 155250000
L151002200 132500000
" />
<path d="M174552200 153850000
L172552200 153850000
" />
<path d="M161002200.000000 132500000.000000 A1000000.000000 1000000.000000 0.0 1 0 162002200.000000 131500000.000000" />
<path d="M172552200 28150000
L174552200 28150000
" />
<path d="M181002200 26750000
L181002200 155250000
" />
<path d="M161002200 123250000
L151002200 123250000
" />
<path d="M151002200 132500000
L161002200 132500000
" />
<path d="M174552200.000000 153850000.000000 A1600000.000000 1600000.000000 0.0 0 0 174552200.000000 150650000.000000" />
<g >
</g>
<g >
</g>
<g >
</g>
<g >
</g>
<g >
</g>
<g >
</g>
<g >
</g>
<g >
</g>
<g >
</g>
<g >
</g>
<g >
</g>
<g >
</g>
<g >
</g>
<g >
</g>
<g >
</g>
<g >
</g>
</g> 
</svg>
